PathFileType  4	(X/Y/Z) C:\Users\antoi\Documents\MyRepositories\mobilecap\ResultsAnalysis
DataRate	CameraRate	NumFrames	NumMarkers	Units	OrigDataRate	OrigDataStartFrame	OrigNumFrames
100.0	100.0	4	51	mm	100.0	73	144
Frame#	Time	r_knee			r_shank_antsup			r_ankle			r_calc			r_5meta			r_toe			L_knee			L_shank_antsup			L_ankle			L_calc			L_5meta			L_toe			r_sh2			r_sh3			r_sh4			L_sh2			L_sh3			r_thigh1			r_thigh2			r_thigh3			r_thigh4			r_thigh5			L_thigh1			L_thigh2			L_thigh3			L_thigh4			r.ASIS			r.PSIS			L.ASIS			L.PSIS			C7			R_Shoulder			L_Shoulder			R_Sternum			L_Sternum			R_humerus			R_elbow_med			R_elbow_lat			R_forearm			R_wrist_radius			R_wrist_ulna			L_humerus			L_elbow_med			L_elbow_lat			L_forearm			L_wrist_radius			L_wrist_ulna			R_HJC			L_HJC			R_HJC_reg			L_HJC_reg			
		X1	Y1	Z1	X2	Y2	Z2	X3	Y3	Z3	X4	Y4	Z4	X5	Y5	Z5	X6	Y6	Z6	X7	Y7	Z7	X8	Y8	Z8	X9	Y9	Z9	X10	Y10	Z10	X11	Y11	Z11	X12	Y12	Z12	X13	Y13	Z13	X14	Y14	Z14	X15	Y15	Z15	X16	Y16	Z16	X17	Y17	Z17	X18	Y18	Z18	X19	Y19	Z19	X20	Y20	Z20	X21	Y21	Z21	X22	Y22	Z22	X23	Y23	Z23	X24	Y24	Z24	X25	Y25	Z25	X26	Y26	Z26	X27	Y27	Z27	X28	Y28	Z28	X29	Y29	Z29	X30	Y30	Z30	X31	Y31	Z31	X32	Y32	Z32	X33	Y33	Z33	X34	Y34	Z34	X35	Y35	Z35	X36	Y36	Z36	X37	Y37	Z37	X38	Y38	Z38	X39	Y39	Z39	X40	Y40	Z40	X41	Y41	Z41	X42	Y42	Z42	X43	Y43	Z43	X44	Y44	Z44	X45	Y45	Z45	X46	Y46	Z46	X47	Y47	Z47	X48	Y48	Z48	X49	Y49	Z49	X50	Y50	Z50	X51	Y51	Z51	

73	0.72000000	683.47664	514.53965	-36.75488	645.63857	415.54545	-53.97258	366.52337	245.55102	-135.58201	292.86426	284.00747	-200.53823	353.87941	101.33074	-105.33090	424.86488	74.26383	-154.91772	851.61232	539.93842	-397.31351	862.98743	449.84720	-418.19767	874.93375	118.83427	-357.35506	809.57518	73.93951	-291.87778	983.26106	49.33401	-409.43353	1052.15947	78.21324	-357.37108	552.00979	351.47095	-51.78948	607.05829	470.13780	-19.56752	503.08745	419.66032	-38.76020	776.01093	445.98194	-393.67109	797.78303	326.82073	-387.93110	776.87034	837.47987	-26.18267	777.78084	727.25180	-21.69082	717.65247	702.96799	0.25555	664.27866	834.56989	-9.19003	667.54227	721.21308	-16.61991	820.16196	844.05899	-397.66905	880.56866	716.64003	-395.72984	722.80630	795.96371	-408.96324	776.69949	671.18341	-409.36523	787.66930	1058.92865	-79.03205	607.49379	1067.10021	-141.94812	791.71168	1037.16670	-331.37760	603.17909	1059.07250	-252.52372	732.05097	1528.16862	-456.14280	853.54772	1533.72459	-302.96903	705.35001	1364.46539	-559.26650	838.22890	1426.06865	-409.87211	813.17735	1396.79877	-450.72838	860.56200	1433.08458	-161.83055	738.48591	1283.54365	-51.60033	791.58883	1336.50515	-3.23106	889.46802	1195.96590	42.88458	944.13181	1115.50127	40.92505	918.39304	1124.93133	78.87592	638.49655	1231.36908	-555.97284	562.65197	1074.82892	-381.39924	535.04065	1058.44054	-457.41491	536.03469	982.63539	-466.54536	519.31791	810.11123	-415.59500	479.97712	822.89283	-408.28837	711.04489	941.28020	-87.49181	702.81550	930.69480	-294.02373	732.88261	972.21016	-106.27763	726.37726	960.11609	-272.90762	
74	0.73000000	707.49126	515.85626	-35.70545	669.06581	417.79866	-52.39102	386.76839	253.70491	-136.00593	317.82692	296.19003	-203.15605	365.60327	110.08234	-105.72246	436.89055	78.81536	-152.60172	857.09926	539.83749	-399.78229	868.12595	449.75196	-420.43471	875.31080	118.94566	-357.45852	809.57711	74.11911	-291.91592	983.27295	49.27893	-409.62402	1052.42079	77.47447	-357.41411	574.21094	355.44677	-50.70924	630.87353	473.58012	-18.97835	526.37122	424.59636	-38.73810	781.13331	447.15792	-395.66979	801.20526	327.87158	-389.35507	791.62883	840.57998	-27.69185	795.32959	730.43240	-21.84715	735.64930	705.25673	0.00731	679.00509	835.31593	-11.80118	685.49695	722.16096	-17.27265	828.49934	843.85241	-402.57579	887.62001	715.87211	-400.48952	730.54391	797.04330	-411.45382	782.91464	671.56739	-411.90949	799.27354	1060.61412	-82.46400	618.83144	1068.83674	-144.96816	802.58836	1038.88987	-334.73766	614.39591	1061.20587	-255.52379	745.86788	1531.19278	-456.96148	866.40016	1535.74772	-302.91536	719.48061	1368.07834	-560.90246	851.61257	1428.65717	-410.48215	826.71832	1399.66227	-451.63099	871.24796	1434.13915	-162.20674	746.18824	1284.98994	-54.86080	799.28682	1336.79829	-5.30287	893.98875	1194.37342	41.80987	946.95791	1112.65942	40.25805	921.00538	1122.66455	78.19749	653.84834	1234.39975	-558.95907	579.60671	1075.27063	-385.83355	552.61827	1058.97092	-462.17668	555.41682	983.28423	-471.85357	542.49885	809.85467	-422.91971	502.85737	821.69449	-415.53800	722.41333	943.00782	-90.80085	713.69912	932.56924	-297.32045	744.32538	973.51879	-109.91063	737.63797	962.02233	-276.51855	
75	0.74000000	731.08407	518.05789	-35.01082	692.94460	420.51710	-51.20204	407.91257	261.45172	-136.52063	342.70951	306.19280	-205.83060	380.51866	118.80153	-105.31173	452.02403	84.14533	-149.70083	862.18262	539.75304	-402.06269	872.65748	449.66632	-422.44760	875.64257	119.11508	-357.61377	809.59017	74.31386	-291.96220	983.29650	49.20311	-409.80392	1052.64310	76.85609	-357.52693	597.13173	359.58074	-49.78573	655.04737	477.38910	-18.61702	550.22821	429.49775	-38.60118	785.74637	448.23320	-397.28757	804.26936	328.83301	-390.53469	806.09189	843.97188	-29.28721	812.63469	734.02283	-22.28955	753.45605	707.92796	-0.43384	693.55198	836.29389	-14.48091	703.29769	723.45717	-18.13812	836.94064	843.80177	-407.08905	894.47632	715.11417	-404.77634	738.28496	798.39742	-413.96058	788.98576	672.14401	-414.41136	810.59180	1062.46217	-85.78705	629.92195	1070.64871	-148.16110	813.37061	1040.70235	-338.05071	625.47255	1063.41614	-258.68259	759.45337	1534.60398	-457.42752	878.85219	1538.02397	-302.41066	733.35665	1372.27059	-562.43107	864.77417	1431.62378	-410.81179	840.06526	1402.93999	-452.32138	881.51293	1435.33872	-162.23999	753.65676	1286.35643	-58.04524	806.62259	1337.03187	-7.25430	898.18905	1192.81939	40.73309	949.50178	1109.89446	39.54077	923.34176	1120.46785	77.43081	668.85483	1238.00928	-561.99954	596.52211	1076.10064	-390.38819	570.14308	1059.92315	-467.04744	574.87404	984.38965	-477.36303	566.28637	810.09501	-430.70970	526.34624	820.84689	-423.19488	733.50201	944.86797	-94.11263	724.51640	934.52363	-300.62424	755.52042	974.90848	-113.49834	748.81001	964.00665	-280.13374	
76	0.75000000	754.30917	521.10921	-34.70869	717.13793	423.66077	-50.47038	429.90624	268.62696	-137.08933	367.04361	313.86745	-208.32891	398.94730	127.09840	-104.04201	470.61973	90.04992	-146.40496	866.95685	539.78515	-404.14949	876.59327	449.64138	-424.23713	875.93773	119.33639	-357.81832	809.62308	74.52076	-292.01700	983.32782	49.11094	-409.95800	1052.81692	76.34690	-357.69446	620.60360	363.83971	-49.13464	679.47821	481.44295	-18.48923	574.46795	434.34793	-38.41728	789.85105	449.30286	-398.54501	806.95529	329.76338	-391.46335	820.33470	847.64025	-31.07258	829.80149	738.01786	-23.11600	771.16971	710.92031	-1.13923	708.06273	837.45940	-17.18528	721.03132	725.00395	-19.26782	845.59546	844.06556	-411.04020	901.29136	714.55375	-408.45391	746.15851	800.10471	-416.53037	795.12215	673.04648	-416.90278	821.62485	1064.48024	-89.00553	640.79472	1072.55075	-151.46317	824.10247	1042.67921	-341.29813	636.41711	1065.74868	-261.94724	772.81668	1538.36003	-457.56760	890.93962	1540.51624	-301.50154	747.00125	1376.97032	-563.84982	877.73560	1434.93499	-410.88375	853.22715	1406.59193	-452.80898	891.37733	1436.66071	-161.96363	760.91396	1287.63739	-61.17464	813.59564	1337.21357	-9.10981	902.09005	1191.31033	39.64831	951.79426	1107.21827	38.78772	925.44981	1118.37662	76.57195	683.49018	1242.13782	-565.06764	613.39496	1077.29006	-395.02768	587.60028	1061.27142	-471.98003	594.34698	985.93401	-483.04778	590.60777	810.87681	-438.92059	550.38312	820.38063	-431.20606	744.34713	946.86585	-97.42609	735.29143	936.61899	-303.93787	766.51530	976.39637	-117.05469	759.90970	966.13575	-283.75070	
